<svg width="16" height="16" viewBox="0 0 16 16" fill="none" xmlns="http://www.w3.org/2000/svg">
<path fill-rule="evenodd" clip-rule="evenodd" d="M6.66667 1.33333C6.13624 1.33333 5.62753 1.54405 5.25246 1.91912C4.87739 2.29419 4.66667 2.8029 4.66667 3.33333V4H2.66667C1.5621 4 0.666672 4.89543 0.666672 6V12.6667C0.666672 13.7712 1.5621 14.6667 2.66667 14.6667H13.3333C14.4379 14.6667 15.3333 13.7712 15.3333 12.6667V6C15.3333 4.89543 14.4379 4 13.3333 4H11.3333V3.33333C11.3333 2.8029 11.1226 2.29419 10.7476 1.91912C10.3725 1.54405 9.86377 1.33333 9.33334 1.33333H6.66667ZM10 4V3.33333C10 3.15652 9.92977 2.98695 9.80474 2.86193C9.67972 2.7369 9.51015 2.66667 9.33334 2.66667H6.66667C6.48986 2.66667 6.32029 2.7369 6.19527 2.86193C6.07024 2.98695 6 3.15652 6 3.33333V4H10ZM6 5.33333H10V13.3333H6V5.33333ZM4.66667 5.33333H2.66667C2.29848 5.33333 2.00001 5.63181 2.00001 6V12.6667C2.00001 13.0349 2.29848 13.3333 2.66667 13.3333H4.66667V5.33333ZM11.3333 13.3333V5.33333H13.3333C13.7015 5.33333 14 5.63181 14 6V12.6667C14 13.0349 13.7015 13.3333 13.3333 13.3333H11.3333Z" fill="white"/>
</svg>
